<svg xmlns="http://www.w3.org/2000/svg" width="512" height="512" viewBox="0 0 512 512">
  <rect width="512" height="512" rx="112" fill="#F3F8FF"/>
  <path d="M76 177 193 141 316 177 436 141V369L316 405 193 369 76 405Z" fill="#DFEBFF"/>
  <path d="M193 141 316 177V405L193 369Z" fill="#C6DAFC"/>
  <path d="M108 347 173 322 241 344 307 310 399 326" fill="none" stroke="#FFF" stroke-width="24" stroke-linecap="round" stroke-linejoin="round"/>
  <path d="M256 79c-64 0-112 47-112 109 0 82 112 170 112 170s112-88 112-170c0-62-48-109-112-109Z" fill="#246BEB"/>
  <circle cx="256" cy="189" r="48" fill="#FFF"/>
  <path d="m253 157 25 57-25-12-25 12Z" fill="#22B989"/>
</svg>
